PathFileType	4	(X/Y/Z)	Patient4_TMGait_0pt4_03_left_09.trc.trc
DataRate	CameraRate	NumFrames	NumMarkers	Units	OrigDataRate	OrigDataStartFrame	OrigNumFrames
77.348066298343	77.348066298343	5	33	mm	77.348066298343	71	       141
Frame#	Time	Sacral			L.Shoulder			Chest			R.Shoulder			Neck			R.ASIS			L.ASIS			R.Thigh.Superior			R.Thigh.Lateral			R.Thigh.Inferior			R.Patella			L.Thigh.Superior			L.Thigh.Lateral			L.Thigh.Inferior			L.Patella			L.Shank.Superior			L.Shank.Lateral			L.Shank.Inferior			R.Shank.Superior			R.Shank.Lateral			R.Shank.Inferior			R.Heel			R.Midfoot.Superior			R.Midfoot.Lateral			R.Toe			L.Heel			L.Midfoot.Lateral			L.Midfoot.Superior			L.Toe			L.Elbow			L.Wrist			R.Elbow			R.Wrist			
		X1	Y1	Z1	X2	Y2	Z2	X3	Y3	Z3	X4	Y4	Z4	X5	Y5	Z5	X6	Y6	Z6	X7	Y7	Z7	X8	Y8	Z8	X9	Y9	Z9	X10	Y10	Z10	X11	Y11	Z11	X12	Y12	Z12	X13	Y13	Z13	X14	Y14	Z14	X15	Y15	Z15	X16	Y16	Z16	X17	Y17	Z17	X18	Y18	Z18	X19	Y19	Z19	X20	Y20	Z20	X21	Y21	Z21	X22	Y22	Z22	X23	Y23	Z23	X24	Y24	Z24	X25	Y25	Z25	X26	Y26	Z26	X27	Y27	Z27	X28	Y28	Z28	X29	Y29	Z29	X30	Y30	Z30	X31	Y31	Z31	X32	Y32	Z32	X33	Y33	Z33	

71	12.335000000000	802.550609868797	1005.631667304923	436.272740586531	999.564549215032	1428.507209386571	250.064391512154	1087.604467918319	1364.123872695336	420.996381139645	990.412543256569	1441.623261380551	586.018933029535	965.522572320264	1494.391074130590	404.989349650217	1026.530360049123	944.964057481107	567.166101998671	1024.975211880739	960.883414532214	290.690779183027	1091.083217750234	759.279216855468	543.587209495358	1038.062939596461	642.636096882492	618.586257758609	1122.839113907641	597.896831197378	538.130790229428	1150.289839432975	515.978451868746	554.721123676841	1040.115981395393	737.040618272143	321.932008999352	934.209473462493	635.423851997010	252.916758820025	998.893155390307	546.476630536868	319.079944988311	986.632295561522	480.030402280559	327.452773175799	956.503505132065	411.032927744945	317.234106528259	858.703015437818	303.930835151214	263.959510419803	899.837480918541	188.784829596009	335.317555766423	1131.575110309577	429.324845331600	568.003493436550	1075.856160589468	319.639188058565	636.070077653936	1139.927238581487	229.518806256904	584.222557204268	1041.564455677100	44.334230705200	564.691419347015	1206.885703171673	116.089645412408	597.003915714569	1128.143624520002	43.732233726963	635.892037703779	1331.233492666191	77.736383146936	619.689128888574	765.245431058903	38.574058404985	381.147182170227	835.374363811115	34.605980418343	297.145811998070	919.703266889466	95.272280395325	322.044378600669	1047.504588740839	42.782238946455	287.722221144445	1059.173727335833	1099.642855459271	100.616269897483	1301.889345818273	1001.374032399129	108.783901377288	874.556831845881	1116.281395783807	702.062702011186	898.721398025073	854.772699060402	704.591696862023	
72	12.347928571429	804.104608395691	1004.558758256918	438.464967335964	999.551657042994	1427.881241423414	252.513908292334	1088.013925095565	1363.665210314089	423.263781340716	990.861525342978	1440.756464845703	588.474779756622	965.546044610326	1493.585881838283	407.361772891457	1028.204130964684	943.796076366612	569.111725717480	1026.484153136925	960.204152513506	292.672164168514	1091.723601714232	756.995863765907	546.070937883784	1035.868132461215	640.057050189933	619.047431139823	1121.537009757313	595.678570514450	539.605575964089	1147.338413776026	513.867080122678	554.971402732248	1040.268486467041	735.826834188219	323.494340682588	933.383236720331	635.011538997180	254.307529288095	997.245962688658	545.502635617797	320.329844024075	984.482728339382	478.994840089649	328.518115056184	953.806292641659	410.277621749979	318.190388677390	855.099530503756	304.047797068412	264.735088202060	895.322408304845	188.317313229677	335.675630391566	1128.824115881634	426.739040748473	567.829605720541	1072.158215008287	316.693316141848	634.284890463568	1136.752692239549	226.950488489831	582.639475983483	1038.324926689997	43.101497880754	561.021735544276	1203.573640552535	113.135535672214	595.100278473649	1123.943735406114	41.983639950147	633.303174927705	1327.387653147101	73.919693580103	619.230940426648	760.039066107049	38.475904597388	381.164686862513	830.153805732676	34.578882880453	297.170020249149	914.476282184292	95.209085940404	322.146442155167	1042.284318571776	42.670980724299	287.705303157575	1061.145402922129	1099.221736976567	103.551394256173	1305.304925773936	1004.894964587425	111.201771927927	876.639815768747	1114.812859046368	704.556491605343	902.436644420515	853.418332904190	706.847880726229	
73	12.360857142857	805.841123827366	1003.400580132355	440.870339438919	999.426447780933	1427.265220441155	255.142489243116	1088.435408294454	1363.264081304108	425.666625027346	991.358650987283	1439.850907392592	591.127739234131	965.541072482888	1492.768377652696	409.929204652166	1030.148809436909	942.644282310594	571.132470726329	1028.105117793575	959.500336072430	294.783641470038	1093.024563490154	754.924384847256	548.469583478094	1034.384513922025	637.666221306352	619.287379707238	1120.945297860744	593.758418567489	540.827733866939	1144.982344729110	511.733057322741	554.941609478824	1040.668501890342	734.588974840124	325.108914852311	932.780885163798	634.547391709463	255.861956887455	995.968172922778	544.480177284960	321.632322102531	982.758262386221	477.825106728178	329.641983027549	951.408567712934	409.436579014612	319.227980213947	851.641289377383	304.204794801120	265.635465706085	890.885830741924	187.816493200883	336.080276891777	1126.300435584590	424.040504014734	567.443246654835	1068.247774047217	313.981052757633	632.500353041245	1132.692585244939	224.247452054700	580.970025775906	1033.088414400509	42.369908454128	557.634861957590	1198.596264508441	109.948343744576	593.171068768000	1117.806183319266	40.475984873918	630.907065769615	1321.778249173285	69.377641051966	618.702746481973	754.822056005903	38.359141823668	381.185456063970	824.939449508825	34.539120829497	297.214160084007	909.258368726491	95.148018084508	322.261285043531	1037.076728205700	42.536957330173	287.678404907810	1062.647670307367	1098.694716498795	106.641757638070	1308.000462029657	1007.778438532507	113.750566312126	879.319878045984	1113.103689016757	707.341168541309	907.260867271321	851.911200214996	709.572245593386	
74	12.373785714286	807.729742144158	1002.200412870216	443.455783587840	999.231569066064	1426.684459283612	257.937609265679	1088.884004557858	1362.936924034357	428.203721178261	991.906485773054	1438.941405227109	593.962865648602	965.533447223629	1491.973383095685	412.679000154441	1032.317716329979	941.558069804610	573.229842078434	1029.807310510435	958.798661766390	297.022037847765	1094.890209879744	753.090148799344	550.726326166365	1033.652563845099	635.563248628772	619.405797954864	1120.990395876696	592.155940441062	541.791585425200	1143.224143170645	509.651296213292	554.688742952761	1041.322721362583	733.362633276601	326.750764132173	932.421014551408	634.041182359547	257.582919221262	995.117616368023	543.426069734612	322.974049746124	981.541817327210	476.520619289162	330.802848508806	949.363457613532	408.516525352226	320.337521630186	848.365397094479	304.428185920962	266.661217279739	886.551592833795	187.305346790187	336.527685831671	1124.121212915459	421.366310508710	566.933872992754	1064.491844658722	311.565175234304	630.926894859368	1128.181873697372	221.541821979834	579.342333817206	1026.552352623184	41.997088308687	554.741734403454	1192.541651652475	106.781611175012	591.349101195873	1110.489529427123	39.236709470024	628.859799969745	1315.094426550262	64.616300128033	618.148639083229	749.596225803604	38.265604458723	381.205528187578	819.738755747966	34.501679597889	297.280095911186	904.070598691224	95.095903661002	322.380877459145	1031.891413594153	42.369349274613	287.640194082479	1063.653922261766	1098.064458305290	109.870540332111	1309.960489567044	1009.988786099134	116.414226421921	882.566790321229	1111.214166029721	710.391172546316	913.163076535684	850.322896818457	712.754960211115	
75	12.386714285714	809.731309855268	1001.013075911557	446.187232648682	999.011006676649	1426.173285618834	260.881146862855	1089.372950613030	1362.704007861061	430.867858960823	992.508218089729	1438.071199835027	596.958563600857	965.547461095721	1491.242606458024	415.595152303457	1034.654027273501	940.591965371427	575.406930758686	1031.551475004885	958.133576834583	299.382192396839	1097.193837115000	751.527453083497	552.792781845973	1033.693434315262	633.840647992151	619.523574566905	1121.577527892118	590.884563441480	542.518170201782	1142.049068112648	507.704473637531	554.316084208631	1042.238917967025	732.196748044606	328.396467254360	932.334417096517	633.507631164966	259.469147415450	994.769229024666	542.366326865934	324.339300976721	980.934796367987	475.089946011811	331.968108844270	947.740478936033	407.531799737826	321.500126942737	845.325345202946	304.756008336383	267.805984409157	882.356583958643	186.820456608165	337.006688204700	1122.373466502733	418.854014017075	566.409030591957	1061.195208486556	309.508115425745	629.746124721474	1123.609660887123	218.975928228145	577.876448257653	1019.374546474388	41.867109472175	552.475757452416	1185.958200429273	103.878975516588	589.755119307917	1102.689368907473	38.282799430805	627.265197385109	1307.956600848270	60.092844978816	617.623495320925	744.369162871068	38.265840403963	381.218733183090	814.562407602932	34.495121850507	297.366745730898	898.944137584604	95.063006204919	322.490824301355	1026.739378873113	42.157224114666	287.589231806133	1064.141576917062	1097.342704550959	113.228294659306	1311.166675138703	1011.489302322039	119.175085820848	886.358179741281	1109.216912084865	713.683247621956	920.114659968813	848.737816842502	716.370322578568	
